<?xml version="1.0" encoding="UTF-8"?>
<svg width="24" height="24" viewBox="0 0 24 24" fill="none" xmlns="http://www.w3.org/2000/svg">
<path d="M19.0942 9.0986C19.8067 8.2107 20.1424 7.51117 20.1424 7.51117L19.0942 9.0986ZM19.0942 9.0986C18.4165 9.94325 17.398 10.9585 16.0034 11.7041M19.0942 9.0986L16.0034 11.7041M19.0942 9.0986L22.2388 10.6558M11.7566 12.7523C10.0711 12.7523 8.66213 12.3202 7.50988 11.7041M11.7566 12.7523L7.50988 11.7041M11.7566 12.7523C13.4422 12.7523 14.8511 12.3202 16.0034 11.7041M11.7566 12.7523L16.0034 11.7041M11.7566 12.7523V16.4211M7.50988 11.7041L4.41908 14.8487M7.50988 11.7041C6.18974 10.9982 5.20655 10.0508 4.53048 9.23528M7.50988 11.7041L4.53048 9.23528M16.0034 11.7041L18.5701 14.8487M4.53048 9.23528C3.74158 8.28352 3.37086 7.51117 3.37086 7.51117L4.53048 9.23528ZM4.53048 9.23528L1.27441 10.6558" stroke="#3F414E" stroke-width="2" stroke-linecap="round" stroke-linejoin="round"/>
</svg>
