<?xml version="1.0" standalone="no"?>
<!DOCTYPE svg PUBLIC "-//W3C//DTD SVG 20010904//EN"
 "http://www.w3.org/TR/2001/REC-SVG-20010904/DTD/svg10.dtd">
<svg version="1.0" xmlns="http://www.w3.org/2000/svg"
 width="512.000000pt" height="512.000000pt" viewBox="0 0 512.000000 512.000000"
 preserveAspectRatio="xMidYMid meet">

<g transform="translate(0.000000,512.000000) scale(0.100000,-0.100000)"
fill="#000000" stroke="none">
<path d="M1174 4636 c-161 -52 -271 -248 -303 -540 -20 -176 -13 -264 23 -288
21 -15 83 -8 98 10 11 12 18 61 26 177 13 182 37 288 84 377 44 82 93 118 163
118 154 0 280 -219 301 -522 8 -117 22 -142 77 -142 61 0 77 24 77 113 0 298
-133 582 -313 671 -74 36 -170 47 -233 26z"/>
<path d="M2467 4640 c-88 -23 -172 -92 -230 -190 -63 -108 -107 -319 -107
-509 0 -117 13 -141 75 -141 62 0 71 19 78 169 17 333 108 521 251 521 59 0
91 -16 145 -75 92 -100 161 -318 161 -512 0 -74 75 -109 125 -58 22 21 25 33
25 92 0 151 -53 357 -123 481 -44 78 -130 167 -190 197 -59 28 -152 39 -210
25z"/>
<path d="M3737 4640 c-125 -32 -216 -127 -274 -288 -39 -108 -54 -198 -60
-358 -6 -145 -5 -152 16 -173 27 -27 84 -28 109 -3 16 16 20 41 25 153 9 205
42 340 108 436 41 59 82 83 142 83 60 0 92 -16 146 -75 82 -89 134 -237 152
-435 10 -104 13 -117 37 -138 30 -28 77 -24 105 9 31 38 13 241 -33 394 -52
168 -166 324 -273 373 -55 26 -145 35 -200 22z"/>
<path d="M908 3175 c-201 -74 -322 -339 -344 -757 -8 -145 0 -179 47 -198 38
-16 83 2 97 38 6 15 13 97 16 182 12 348 117 574 277 596 75 10 125 -10 194
-79 111 -112 189 -317 201 -531 6 -123 10 -140 30 -160 22 -23 87 -21 109 4
35 39 12 304 -42 469 -93 289 -266 452 -476 450 -40 0 -89 -7 -109 -14z"/>
<path d="M2407 3175 c-152 -56 -272 -252 -317 -519 -26 -154 -35 -363 -18
-396 21 -38 62 -55 100 -39 40 16 48 43 48 157 0 451 182 745 396 642 147 -72
267 -331 281 -608 7 -135 21 -162 82 -162 64 0 77 24 73 139 -10 381 -178 704
-406 781 -70 24 -182 26 -239 5z"/>
<path d="M3906 3174 c-21 -8 -57 -28 -80 -46 -162 -124 -253 -384 -258 -740
-2 -109 1 -130 16 -147 25 -27 61 -34 95 -17 38 20 41 31 41 144 0 394 131
672 315 672 180 0 345 -286 362 -623 7 -141 20 -167 83 -167 30 0 43 6 60 28
20 25 21 34 15 122 -29 406 -182 691 -412 771 -67 23 -179 24 -237 3z"/>
<path d="M640 1534 c-224 -60 -379 -342 -420 -763 -13 -131 -13 -297 0 -321
21 -39 98 -45 126 -9 6 8 16 102 22 209 16 274 58 448 139 582 126 210 343
213 498 6 112 -149 180 -366 194 -622 7 -118 9 -130 30 -147 30 -24 72 -24
102 0 23 19 24 24 21 133 -8 343 -123 648 -308 817 -67 62 -131 96 -216 116
-77 18 -117 18 -188 -1z"/>
<path d="M2418 1535 c-69 -19 -126 -55 -189 -121 -71 -75 -120 -164 -163 -295
-49 -152 -67 -268 -73 -479 -5 -180 -5 -185 16 -204 30 -27 88 -26 111 1 14
17 18 52 23 185 13 331 77 553 194 679 60 65 110 88 189 89 230 1 428 -340
451 -778 6 -103 9 -119 29 -139 29 -29 63 -29 99 -1 l28 22 -6 135 c-12 281
-88 521 -222 699 -129 172 -321 253 -487 207z"/>
<path d="M4207 1539 c-195 -46 -351 -273 -411 -600 -17 -90 -36 -306 -36 -398
0 -94 43 -143 107 -120 44 15 53 46 53 174 0 380 111 690 274 770 47 23 66 27
118 23 83 -5 131 -29 203 -103 134 -134 222 -385 240 -683 7 -104 9 -114 32
-132 35 -27 69 -25 100 6 26 26 26 27 20 143 -19 339 -110 589 -280 767 -121
128 -280 186 -420 153z"/>
</g>
</svg>
