<?xml version="1.0" standalone="no"?>
<!DOCTYPE svg PUBLIC "-//W3C//DTD SVG 20010904//EN"
 "http://www.w3.org/TR/2001/REC-SVG-20010904/DTD/svg10.dtd">
<svg version="1.0" xmlns="http://www.w3.org/2000/svg"
 width="512.000000pt" height="512.000000pt" viewBox="0 0 512.000000 512.000000"
 preserveAspectRatio="xMidYMid meet">

<g transform="translate(0.000000,512.000000) scale(0.100000,-0.100000)"
fill="#ffffff" stroke="none">
<path d="M1420 4740 c-557 -66 -912 -712 -711 -1294 29 -81 101 -214 154 -283
59 -76 213 -224 307 -294 402 -300 921 -424 1434 -343 472 74 933 289 1401
653 241 188 518 445 535 497 34 103 -65 202 -162 161 -18 -8 -82 -61 -143
-119 -464 -440 -877 -707 -1321 -854 -242 -79 -442 -109 -683 -101 -365 12
-681 128 -961 354 -263 212 -372 431 -357 712 7 126 25 199 77 306 73 152 205
276 345 326 85 31 233 37 328 14 96 -23 241 -92 298 -143 186 -166 183 -429
-5 -611 -97 -92 -192 -131 -355 -146 -65 -6 -78 -11 -110 -40 -33 -31 -36 -38
-36 -89 0 -50 4 -59 33 -88 32 -33 33 -33 130 -32 339 2 647 242 717 559 24
104 17 266 -14 355 -92 263 -364 458 -696 499 -98 12 -109 12 -205 1z"/>
<path d="M4762 3193 c-19 -21 -77 -110 -129 -198 -679 -1152 -1536 -1911
-2402 -2130 -213 -53 -270 -60 -541 -59 -227 0 -267 2 -360 22 -572 124 -880
429 -881 872 0 390 244 669 586 670 33 0 101 -9 150 -19 172 -35 300 -124 362
-248 26 -53 28 -67 28 -169 0 -107 -1 -112 -37 -185 -70 -142 -163 -218 -330
-270 -134 -42 -175 -92 -149 -179 31 -105 143 -113 339 -24 197 90 334 239
405 441 27 79 31 101 31 208 1 99 -3 133 -22 195 -63 203 -214 358 -426 438
-134 51 -227 65 -386 60 -119 -4 -146 -8 -227 -36 -155 -53 -276 -137 -373
-257 -320 -402 -267 -1023 118 -1386 260 -246 711 -399 1176 -399 477 0 978
155 1444 447 270 169 483 342 747 607 337 337 615 697 915 1181 139 224 183
311 174 349 -15 69 -62 106 -135 106 -35 0 -47 -6 -77 -37z"/>
</g>
</svg>
