<?xml version="1.0" standalone="no"?>
<!DOCTYPE svg PUBLIC "-//W3C//DTD SVG 20010904//EN"
 "http://www.w3.org/TR/2001/REC-SVG-20010904/DTD/svg10.dtd">
<svg version="1.0" xmlns="http://www.w3.org/2000/svg"
 width="512.000000pt" height="512.000000pt" viewBox="0 0 512.000000 512.000000"
 preserveAspectRatio="xMidYMid meet">

<g transform="translate(0.000000,512.000000) scale(0.100000,-0.100000)"
fill="#FFFFFF" stroke="none">
<path d="M1849 4783 c-41 -43 -1554 -1779 -1622 -1861 -15 -19 -27 -46 -27
-61 0 -62 0 -62 623 -184 317 -61 577 -114 577 -117 0 -3 -260 -56 -577 -117
-623 -122 -623 -122 -623 -184 0 -15 12 -42 27 -61 68 -82 1581 -1818 1622
-1860 53 -56 93 -64 128 -26 12 14 134 357 299 840 153 450 281 818 284 818 3
0 131 -368 284 -818 165 -484 287 -826 299 -839 35 -39 75 -31 128 25 41 42
1555 1779 1622 1860 33 41 35 81 3 111 -19 18 -102 37 -527 120 -277 54 -537
104 -576 111 -40 7 -73 16 -73 19 0 3 259 56 576 118 493 95 580 115 600 134
32 30 31 70 -3 111 -67 81 -1581 1818 -1622 1861 -53 55 -93 63 -128 25 -12
-14 -133 -353 -299 -840 -153 -450 -281 -818 -284 -818 -3 0 -131 368 -284
818 -165 484 -287 826 -299 840 -35 38 -75 30 -128 -25z m346 -1053 c208 -608
302 -870 317 -882 11 -10 33 -18 48 -18 15 0 37 8 48 18 15 12 109 273 318
885 l297 868 23 -23 c31 -31 1452 -1663 1450 -1665 0 -1 -316 -62 -701 -137
-385 -75 -715 -143 -732 -151 -38 -17 -51 -52 -33 -94 6 -16 24 -34 38 -39 15
-6 342 -72 727 -147 384 -75 700 -137 701 -138 3 -4 -1468 -1688 -1472 -1685
-2 2 -136 393 -299 868 -206 601 -303 870 -317 883 -26 22 -70 22 -97 0 -14
-13 -106 -268 -317 -885 -164 -477 -301 -865 -305 -862 -5 2 -324 368 -711
812 -387 443 -715 821 -731 838 l-27 32 82 15 c232 44 1325 258 1341 263 25 8
57 44 57 65 0 32 -22 67 -49 78 -14 6 -341 71 -725 146 -385 74 -701 136 -702
138 -3 4 1468 1689 1471 1685 2 -2 137 -392 300 -868z"/>
</g>
</svg>
