<?xml version="1.0" standalone="no"?>
<!DOCTYPE svg PUBLIC "-//W3C//DTD SVG 20010904//EN"
 "http://www.w3.org/TR/2001/REC-SVG-20010904/DTD/svg10.dtd">
<svg version="1.0" xmlns="http://www.w3.org/2000/svg"
 width="512.000000pt" height="512.000000pt" viewBox="0 0 512.000000 512.000000"
 preserveAspectRatio="xMidYMid meet">

<g transform="translate(0.000000,512.000000) scale(0.100000,-0.100000)"
fill="#ffffff" stroke="none">
<path d="M733 4195 c-18 -8 -42 -29 -53 -47 -20 -32 -20 -46 -18 -500 l3 -468
31 -31 c59 -58 157 -48 197 21 15 25 17 76 17 493 0 456 0 465 -21 491 -42 53
-96 67 -156 41z"/>
<path d="M4274 4191 c-66 -40 -64 -28 -64 -428 l0 -363 34 -38 c32 -34 39 -37
90 -37 49 0 59 4 88 33 l33 32 3 363 c2 349 2 363 -18 395 -21 34 -72 62 -112
62 -13 0 -37 -9 -54 -19z"/>
<path d="M1935 3779 c-17 -5 -44 -22 -60 -39 l-30 -31 -3 -440 c-3 -486 -4
-480 61 -519 69 -43 160 -10 185 65 10 30 12 137 10 460 -3 382 -5 423 -21
448 -32 49 -88 71 -142 56z"/>
<path d="M3116 3779 c-15 -4 -37 -16 -48 -26 -46 -41 -48 -57 -48 -510 0 -261
4 -442 10 -465 32 -113 194 -120 239 -10 8 20 11 155 9 484 l-3 456 -25 27
c-41 44 -85 59 -134 44z"/>
<path d="M719 2583 c-60 -37 -59 -28 -59 -530 0 -442 1 -459 20 -491 43 -70
136 -78 197 -17 l33 33 0 466 c0 512 0 510 -60 541 -38 20 -98 19 -131 -2z"/>
<path d="M4269 2374 c-59 -38 -59 -39 -59 -434 l0 -362 33 -33 c61 -61 154
-53 197 17 20 32 20 46 18 395 l-3 363 -32 31 c-39 39 -112 50 -154 23z"/>
<path d="M3089 2165 c-14 -8 -35 -27 -45 -42 -18 -26 -19 -56 -22 -476 -3
-422 -2 -450 16 -490 44 -99 187 -100 228 -2 21 51 21 900 0 950 -27 64 -115
94 -177 60z"/>
<path d="M1902 1780 c-62 -38 -62 -36 -62 -607 0 -582 -2 -567 74 -606 67 -35
154 5 176 81 8 25 10 205 8 552 -3 574 0 550 -73 584 -44 21 -83 20 -123 -4z"/>
</g>
</svg>
