<svg width="188" height="263" viewBox="0 0 188 263" fill="none" xmlns="http://www.w3.org/2000/svg">
<path d="M147.664 258.273C145.06 188.043 117.634 55.5682 30.6711 21.7842" stroke="white" stroke-width="8" stroke-linecap="round"/>
<path d="M134.912 170.684C150.792 155.043 158.925 101.239 143.91 72.46" stroke="white" stroke-width="8" stroke-linecap="round"/>
<path d="M107.624 101.239C79.6941 89.8495 58.1988 92.4803 34.4248 97.4854" stroke="white" stroke-width="8" stroke-linecap="round"/>
<path d="M139.986 195.418C116.382 197.586 90.7316 184.448 75.0908 169.433" stroke="white" stroke-width="8" stroke-linecap="round"/>
<path d="M150.335 62.9534C154.131 70.4817 150.712 74.439 145.388 77.1239C140.063 79.8087 134.848 80.2044 131.052 72.6761C127.256 65.1477 126.317 52.5462 131.642 49.8613C136.967 47.1764 146.54 55.425 150.335 62.9534Z" fill="white"/>
<path d="M33.3488 10.0024C42.828 14.1966 42.6653 20.6241 39.6987 27.3288C36.732 34.0336 32.0848 38.4768 22.6056 34.2825C13.1265 30.0883 2.40494 18.845 5.37159 12.1402C8.33823 5.43545 23.8696 5.8082 33.3488 10.0024Z" fill="white"/>
<path d="M78.0664 155.777C82.7297 162.393 80.0393 166.632 75.3599 169.93C70.6805 173.229 65.784 174.338 61.1207 167.722C56.4575 161.106 53.7934 149.271 58.4729 145.973C63.1523 142.674 73.4032 149.162 78.0664 155.777Z" fill="white"/>
<path d="M24.2565 89.7838C32.3312 86.7241 35.9957 90.6304 38.1598 96.3418C40.324 102.053 40.1683 107.407 32.0936 110.467C24.0188 113.526 11.0828 113.133 8.91862 107.422C6.75447 101.71 16.1818 92.8434 24.2565 89.7838Z" fill="white"/>
</svg>
