<?xml version="1.0" standalone="no"?>
<!DOCTYPE svg PUBLIC "-//W3C//DTD SVG 20010904//EN"
 "http://www.w3.org/TR/2001/REC-SVG-20010904/DTD/svg10.dtd">
<svg version="1.0" xmlns="http://www.w3.org/2000/svg"
 width="512.000000pt" height="512.000000pt" viewBox="0 0 512.000000 512.000000"
 preserveAspectRatio="xMidYMid meet">

<g transform="translate(0.000000,512.000000) scale(0.100000,-0.100000)"
fill="#ffffff" stroke="none">
<path d="M2944 4596 c-34 -15 -58 -63 -47 -94 16 -45 32 -52 128 -52 105 0
170 -16 267 -67 183 -95 358 -333 434 -588 37 -126 39 -278 5 -383 -45 -137
-142 -256 -271 -332 -102 -61 -107 -61 -162 9 -99 125 -276 252 -421 302 -109
38 -218 40 -292 5 -90 -42 -185 -172 -185 -255 0 -74 103 -189 229 -255 115
-60 203 -79 371 -79 104 -1 165 4 214 16 38 10 70 16 72 14 12 -12 45 -108 54
-158 32 -173 -82 -324 -294 -388 -91 -28 -116 -28 -116 2 0 37 -55 140 -98
183 -74 74 -195 125 -329 139 -60 7 -64 6 -91 -22 -41 -41 -75 -135 -75 -208
1 -133 96 -230 265 -270 35 -8 84 -15 111 -15 31 0 47 -4 47 -12 -1 -27 -60
-150 -103 -216 -26 -38 -82 -102 -125 -143 -167 -159 -330 -215 -538 -185 -56
8 -64 6 -83 -13 -17 -17 -21 -32 -19 -64 3 -37 7 -44 40 -60 57 -28 195 -34
298 -13 293 60 561 311 671 630 16 44 32 82 36 82 109 23 175 44 253 81 154
74 267 204 299 344 22 94 9 208 -35 307 l-23 52 67 34 c290 146 437 423 402
758 -40 384 -295 738 -630 876 -124 50 -261 66 -326 38z m-88 -1357 c30 -11
82 -39 116 -62 68 -45 227 -192 217 -201 -3 -3 -49 -10 -102 -16 -203 -23
-399 35 -497 146 -36 41 -36 47 -10 89 21 34 52 59 85 68 34 10 135 -3 191
-24z m-216 -815 c68 -31 97 -57 121 -109 31 -66 29 -69 -53 -61 -89 9 -171 39
-198 73 -20 26 -25 68 -14 111 6 21 11 23 48 17 22 -4 66 -18 96 -31z"/>
<path d="M860 4204 c-37 -15 -60 -48 -60 -85 0 -59 13 -63 179 -64 88 -1 166
-6 196 -14 184 -50 320 -176 369 -341 21 -68 22 -198 2 -262 -14 -49 -62 -138
-73 -138 -3 0 -29 17 -57 39 -116 88 -206 115 -360 108 -174 -7 -273 -52 -317
-143 -36 -76 -12 -171 63 -246 49 -49 88 -59 245 -65 147 -6 237 8 330 52 l52
24 11 -37 c14 -54 12 -149 -5 -216 -15 -58 -69 -169 -103 -214 l-18 -23 -49
22 c-74 33 -185 37 -272 10 -190 -59 -309 -255 -221 -366 71 -90 274 -66 454
54 42 28 81 51 85 51 4 0 11 -17 14 -37 3 -21 8 -46 10 -56 8 -40 -18 -146
-53 -217 -46 -95 -143 -195 -228 -238 -73 -37 -88 -54 -88 -97 0 -41 28 -75
62 -75 52 0 164 71 252 160 94 95 138 162 178 272 22 61 26 90 26 178 0 92 -3
113 -27 172 l-28 67 36 49 c50 71 100 184 120 276 21 94 16 235 -10 309 l-17
47 41 53 c178 232 153 574 -59 788 -81 81 -159 129 -281 170 -86 29 -107 33
-239 35 -80 2 -152 1 -160 -2z m331 -920 c54 -16 149 -69 149 -84 0 -13 -73
-38 -146 -51 -66 -11 -231 -7 -267 7 -9 3 -26 22 -38 41 -20 31 -20 36 -6 50
47 48 206 67 308 37z m-32 -810 c17 -4 31 -9 31 -13 0 -23 -169 -100 -252
-115 -51 -9 -49 7 7 60 60 58 138 83 214 68z"/>
<path d="M4760 1880 c-18 -18 -20 -33 -20 -129 0 -257 -36 -504 -92 -641 -24
-57 -46 -89 -93 -137 -76 -76 -119 -92 -200 -74 -59 13 -177 85 -229 140 l-29
30 67 133 c129 258 141 447 36 542 -111 100 -341 29 -411 -127 -21 -44 -24
-67 -23 -157 0 -92 4 -115 31 -185 16 -44 46 -107 66 -140 23 -40 32 -65 27
-75 -15 -28 -127 -137 -175 -170 -99 -68 -222 -90 -299 -54 l-34 17 46 56 c25
31 59 85 76 121 29 60 31 73 31 170 0 98 -2 110 -33 175 -54 113 -115 162
-217 172 -96 10 -173 -35 -223 -131 -23 -45 -27 -66 -30 -167 -5 -131 9 -202
58 -308 17 -34 27 -67 24 -72 -3 -5 -37 -19 -77 -31 -56 -18 -96 -23 -182 -23
-99 0 -116 3 -168 27 -32 15 -71 36 -87 48 -39 28 -85 26 -115 -5 -37 -36 -32
-67 16 -109 52 -44 133 -83 218 -102 135 -32 340 -5 472 61 l46 24 44 -30
c130 -86 273 -87 446 -3 75 36 110 61 186 134 l94 89 34 -35 c47 -50 140 -112
213 -142 50 -21 78 -26 151 -26 79 -1 97 2 146 27 86 42 163 125 214 232 78
160 111 338 121 656 7 192 7 196 -14 217 -29 29 -85 29 -112 2z m-660 -250
c23 -14 18 -121 -9 -204 -21 -67 -86 -206 -96 -206 -10 0 -56 103 -70 157 -35
133 -6 213 90 250 37 14 66 16 85 3z m-793 -250 c69 -41 101 -170 68 -269 -11
-33 -34 -70 -66 -104 -47 -50 -49 -51 -64 -33 -71 92 -86 345 -24 407 24 24
46 24 86 -1z"/>
</g>
</svg>
