<?xml version="1.0" standalone="no"?>
<!DOCTYPE svg PUBLIC "-//W3C//DTD SVG 20010904//EN"
 "http://www.w3.org/TR/2001/REC-SVG-20010904/DTD/svg10.dtd">
<svg version="1.0" xmlns="http://www.w3.org/2000/svg"
 width="512.000000pt" height="512.000000pt" viewBox="0 0 512.000000 512.000000"
 preserveAspectRatio="xMidYMid meet">

<g transform="translate(0.000000,512.000000) scale(0.100000,-0.100000)"
fill="#000000" stroke="none">
<path d="M2443 4823 c-72 -7 -106 -73 -64 -124 19 -23 25 -24 218 -30 135 -4
240 -13 331 -29 149 -25 172 -22 190 27 16 46 -7 89 -55 102 -158 42 -459 68
-620 54z"/>
<path d="M1871 4717 c-97 -33 -129 -48 -145 -69 -24 -34 -15 -71 27 -102 l28
-20 77 26 c42 15 109 36 149 48 77 22 103 45 103 90 0 37 -38 70 -81 70 -19
-1 -90 -20 -158 -43z"/>
<path d="M3381 4614 c-48 -61 -25 -92 117 -163 472 -237 837 -636 1032 -1130
28 -69 38 -85 64 -96 50 -21 105 11 106 62 0 53 -122 317 -220 473 -225 360
-580 677 -945 846 -90 42 -126 43 -154 8z"/>
<path d="M1375 4489 c-145 -77 -375 -272 -522 -444 -234 -271 -398 -583 -486
-920 -30 -116 -31 -127 -17 -152 22 -40 73 -52 107 -27 21 16 32 41 54 124 41
157 83 271 154 415 164 336 398 607 710 821 55 37 103 73 108 79 28 39 14 94
-30 114 -32 14 -32 14 -78 -10z"/>
<path d="M2299 4295 c-237 -38 -477 -127 -659 -243 -65 -41 -70 -47 -70 -88 0
-37 36 -74 72 -74 14 0 57 19 94 42 227 138 480 213 754 225 176 7 311 -7 470
-49 163 -44 177 -45 206 -17 28 26 31 64 9 96 -18 26 -130 64 -275 95 -126 26
-473 34 -601 13z"/>
<path d="M3442 4024 c-28 -19 -43 -54 -35 -83 3 -12 49 -54 102 -93 53 -40
148 -125 212 -190 74 -75 124 -118 137 -118 34 0 75 43 75 77 0 40 -33 81
-170 214 -108 104 -249 209 -282 209 -9 0 -27 -7 -39 -16z"/>
<path d="M2354 3784 c-420 -70 -788 -365 -944 -758 -58 -143 -81 -256 -87
-416 -13 -364 107 -670 362 -925 240 -240 540 -365 875 -365 335 0 639 127
875 364 149 150 245 305 305 493 259 807 -344 1629 -1190 1622 -63 -1 -152 -7
-196 -15z m336 -144 c117 -15 219 -44 326 -95 123 -57 203 -113 301 -208 332
-323 424 -819 229 -1233 -57 -121 -113 -201 -208 -300 -319 -332 -820 -425
-1234 -230 -121 57 -201 113 -300 208 -441 424 -441 1132 0 1556 100 95 180
151 300 207 189 89 381 120 586 95z"/>
<path d="M1242 3713 c-186 -197 -344 -518 -403 -820 -21 -106 -21 -113 -5
-138 31 -47 91 -53 124 -12 7 8 17 44 23 79 42 271 168 543 351 761 33 39 65
82 71 94 20 44 -26 103 -81 103 -9 0 -45 -30 -80 -67z"/>
<path d="M4025 3325 c-32 -31 -31 -52 4 -133 107 -244 147 -514 121 -802 l-13
-141 23 -24 c46 -49 113 -23 131 50 17 67 23 392 9 502 -23 186 -122 505 -171
554 -27 27 -75 24 -104 -6z"/>
<path d="M4674 2947 l-27 -24 12 -144 c15 -164 22 -192 57 -208 35 -16 48 -14
79 11 l28 22 -6 125 c-4 69 -11 144 -16 166 -18 72 -76 96 -127 52z"/>
<path d="M323 2656 l-28 -25 2 -128 c4 -225 54 -515 96 -560 28 -31 77 -30
105 0 27 29 27 44 2 149 -28 119 -50 303 -50 418 0 109 -10 142 -47 159 -35
16 -49 14 -80 -13z"/>
<path d="M846 2439 c-22 -17 -26 -28 -26 -71 0 -69 35 -232 76 -358 44 -134
63 -171 95 -189 35 -20 83 -1 99 40 11 26 9 39 -19 112 -45 117 -69 205 -91
337 -15 90 -24 119 -41 133 -28 23 -60 22 -93 -4z"/>
<path d="M4676 2287 c-16 -16 -27 -45 -35 -93 -25 -143 -74 -306 -141 -471
-30 -73 -31 -82 -19 -109 16 -33 55 -50 93 -40 22 5 35 22 62 82 69 149 164
481 164 573 0 39 -39 81 -75 81 -14 0 -36 -10 -49 -23z"/>
<path d="M4058 1949 c-10 -5 -38 -50 -64 -99 -210 -408 -571 -709 -994 -829
-41 -11 -83 -29 -94 -40 -45 -46 -9 -126 57 -124 48 1 236 66 355 123 343 164
640 455 811 797 22 46 41 95 41 111 0 53 -65 89 -112 61z"/>
<path d="M555 1678 c-61 -33 -59 -66 13 -196 87 -161 131 -197 189 -157 40 28
39 69 -5 143 -22 37 -53 95 -71 129 -42 85 -78 108 -126 81z"/>
<path d="M1178 1593 c-45 -53 -27 -91 105 -230 247 -258 518 -419 848 -503
190 -49 452 -66 481 -32 24 26 30 59 17 84 -20 38 -41 47 -104 48 -83 0 -224
18 -325 41 -326 74 -634 261 -854 519 -72 84 -80 90 -115 90 -24 0 -44 -7 -53
-17z"/>
<path d="M4313 1364 c-7 -3 -43 -45 -80 -92 -331 -425 -799 -704 -1337 -798
-91 -15 -116 -35 -116 -89 0 -76 55 -84 257 -40 533 118 1012 426 1338 861 49
64 56 99 28 133 -18 21 -67 35 -90 25z"/>
<path d="M912 1120 c-14 -14 -22 -33 -22 -55 0 -44 35 -85 185 -213 400 -343
906 -542 1407 -554 96 -3 109 -1 127 17 11 11 23 32 26 47 6 22 1 33 -23 58
-29 28 -35 30 -109 30 -43 0 -130 6 -193 14 -463 58 -866 250 -1217 580 -111
104 -138 115 -181 76z"/>
</g>
</svg>
